<svg width="20" height="20" viewBox="0 0 20 20" fill="none" xmlns="http://www.w3.org/2000/svg">
<path d="M7.23153 2.20483C6.94045 1.47716 6.23568 1 5.45195 1H2.81579C1.81296 1 1 1.81276 1 2.81559C1 11.3397 7.91033 18.25 16.4344 18.25C17.4372 18.25 18.25 17.437 18.25 16.4341L18.2504 13.7975C18.2504 13.0138 17.7734 12.3092 17.0457 12.0181L14.5191 11.0078C13.8655 10.7464 13.1213 10.864 12.5804 11.3147L11.9284 11.8586C11.1668 12.4932 10.0463 12.4427 9.34535 11.7418L7.50921 9.90393C6.80825 9.20297 6.75645 8.08336 7.39107 7.32182L7.93481 6.66979C8.3855 6.12896 8.50422 5.38453 8.24276 4.73088L7.23153 2.20483Z" stroke="currentColor" stroke-width="2" stroke-linecap="round" stroke-linejoin="round"/>
</svg>
