<svg width="48" height="48" viewBox="0 0 48 48" fill="none" xmlns="http://www.w3.org/2000/svg">
<path d="M16 8H14.4004C12.1602 8 11.0392 8 10.1836 8.43597C9.43095 8.81947 8.81947 9.43095 8.43597 10.1836C8 11.0392 8 12.1602 8 14.4004V16M16 8H32M16 8V4M32 8H33.6004C35.8406 8 36.9591 8 37.8148 8.43597C38.5674 8.81947 39.181 9.43095 39.5645 10.1836C40 11.0384 40 12.158 40 14.3938V16M32 8V4M8 16V33.6004C8 35.8406 8 36.9601 8.43597 37.8158C8.81947 38.5684 9.43095 39.181 10.1836 39.5645C11.0384 40 12.158 40 14.3938 40H33.6062C35.842 40 36.96 40 37.8148 39.5645C38.5674 39.181 39.181 38.5684 39.5645 37.8158C40 36.961 40 35.843 40 33.6072V16M8 16H40M32 32H32.004L32.0039 32.004L32 32.0039V32ZM24 32H24.004L24.0039 32.004L24 32.0039V32ZM16 32H16.004L16.0039 32.004L16 32.0039V32ZM32.0039 24V24.004L32 24.0039V24H32.0039ZM24 24H24.004L24.0039 24.004L24 24.0039V24ZM16 24H16.004L16.0039 24.004L16 24.0039V24Z" stroke="currentColor" stroke-width="2" stroke-linecap="round" stroke-linejoin="round"/>
</svg>
